<svg width="25" height="16" viewBox="0 0 25 16" version="1.1" xmlns="http://www.w3.org/2000/svg" xmlns:xlink="http://www.w3.org/1999/xlink">
<title>mail</title>
<desc>Created using Figma</desc>
<g id="Canvas" transform="translate(-3681 -1597)">
<g id="mail">
<use xlink:href="#path0_fill" transform="translate(3681 1597)" fill="#FFFFFF"/>
</g>
</g>
<defs>
<path id="path0_fill" d="M 1.66667 1.09049e-06C 0.743333 1.09049e-06 -3.86047e-08 0.74333 -3.86047e-08 1.66667L -3.86047e-08 14.1667C -3.86047e-08 15.09 0.743333 15.8333 1.66667 15.8333L 23.3333 15.8333C 24.2567 15.8333 25 15.09 25 14.1667L 25 1.66667C 25 0.74333 24.2567 1.09049e-06 23.3333 1.09049e-06L 1.66667 1.09049e-06ZM 4.12758 2.04427C 4.45946 2.04002 4.79096 2.17455 5.02604 2.40886L 12.0183 8.99742C 12.1673 9.13805 12.8175 9.13959 12.9688 8.99742L 19.974 2.40886C 20.4512 1.95878 21.2949 1.98353 21.7449 2.46081C 22.1949 2.93809 22.17 3.78183 21.6927 4.23177L 17.9037 7.78646L 21.7188 11.6016C 22.2285 12.0534 22.2537 12.9445 21.7703 13.4244C 21.2868 13.9043 20.396 13.8725 19.9479 13.3594L 16.0808 9.49221L 14.6745 10.8203C 13.4266 11.9933 11.5472 11.9965 10.2995 10.8203L 8.90625 9.50521L 5.05208 13.3594C 4.60404 13.8725 3.71317 13.9043 3.22971 13.4244C 2.74625 12.9445 2.77146 12.0534 3.28125 11.6016L 7.09633 7.78646L 3.30729 4.21875C 2.95817 3.8983 2.81758 3.36897 2.96171 2.91751C 3.14546 2.33933 3.62429 2.11278 4.12758 2.04427Z"/>
</defs>
</svg>
