<svg width="28" height="30" viewBox="0 0 28 30" version="1.1" xmlns="http://www.w3.org/2000/svg" xmlns:xlink="http://www.w3.org/1999/xlink">
<title>icon points</title>
<desc>Created using Figma</desc>
<g id="Canvas" transform="translate(-3297 554)">
<g id="icon points">
<g id="icon points">
<use xlink:href="#path0_fill" transform="translate(3297 -554)" fill="#6B5210"/>
</g>
</g>
</g>
<defs>
<path id="path0_fill" fill-rule="evenodd" d="M 14 12C 17.3137 12 20 9.31372 20 6C 20 2.68628 17.3137 0 14 0C 10.6863 0 8 2.68628 8 6C 8 9.31372 10.6863 12 14 12ZM 12 24C 12 27.3137 9.31372 30 6 30C 2.68628 30 0 27.3137 0 24C 0 20.6863 2.68628 18 6 18C 9.31372 18 12 20.6863 12 24ZM 28 24C 28 27.3137 25.3137 30 22 30C 18.6863 30 16 27.3137 16 24C 16 20.6863 18.6863 18 22 18C 25.3137 18 28 20.6863 28 24Z"/>
</defs>
</svg>
