<svg width="29" height="30" viewBox="0 0 29 30" version="1.1" xmlns="http://www.w3.org/2000/svg" xmlns:xlink="http://www.w3.org/1999/xlink">
<title>Vector</title>
<desc>Created using Figma</desc>
<g id="Canvas" transform="translate(-4143 554)">
<g id="Vector">
<use xlink:href="#path0_fill" transform="translate(4143 -554)" fill="#5D2F95"/>
</g>
</g>
<defs>
<path id="path0_fill" fill-rule="evenodd" d="M 22.6962 6.7899L 25.6219 5.12157C 25.8866 4.97069 26.2259 5.06029 26.3793 5.32241L 28.9257 9.67892C 29.0785 9.94005 28.9877 10.2764 28.7227 10.4273L 25.913 12.0294C 23.6873 13.298 23.7004 16.711 25.9156 17.9733L 28.7227 19.5737C 28.9874 19.7249 29.0785 20.0613 28.9264 20.3224L 26.3793 24.6789C 26.2272 24.939 25.8866 25.03 25.6219 24.8791L 22.9319 23.3457C 21.8575 22.7321 20.6196 22.7461 19.5577 23.3823C 19.4673 23.4356 19.3786 23.4869 19.2869 23.5388C 18.2169 24.1344 17.6014 25.1759 17.6014 26.3886L 17.6014 29.4531C 17.6014 29.7542 17.3519 30 17.0467 30L 11.953 30C 11.6488 30 11.3992 29.7545 11.3992 29.4531L 11.3992 26.3886C 11.3992 25.1765 10.7828 24.1354 9.71346 23.5388C 9.62241 23.4889 9.53204 23.4356 9.44267 23.3823C 8.38042 22.7455 7.14316 22.7321 6.06742 23.3457L 3.37773 24.8791C 3.11335 25.0293 2.77343 24.9404 2.62033 24.6779L 0.0743017 20.3221C -0.0787972 20.0609 0.0122529 19.7256 0.277984 19.5743L 3.08536 17.973C 5.30799 16.7053 5.31676 13.3014 3.08806 12.03L 0.277984 10.427C 0.0125901 10.2761 -0.0777855 9.94038 0.0743017 9.67926L 2.62168 5.32208C 2.77377 5.06095 3.11436 4.97069 3.37874 5.12124L 6.30482 6.7899C 8.52307 8.05522 11.3992 6.41753 11.3992 3.88523L 11.3992 0.547895C 11.3992 0.246137 11.6488 7.49624e-08 11.954 7.49624e-08L 17.0474 7.49624e-08C 17.3526 7.49624e-08 17.6021 0.245803 17.6021 0.547895L 17.6021 3.88523C 17.6014 6.41753 20.4786 8.05456 22.6962 6.7899ZM 14.5003 9.62763C 11.4195 9.62763 8.92167 12.0947 8.92167 15.1369C 8.92167 18.1791 11.4195 20.6462 14.5003 20.6462C 17.5809 20.6462 20.0787 18.1791 20.0787 15.1369C 20.0787 12.0943 17.5812 9.62763 14.5003 9.62763Z"/>
</defs>
</svg>
